<svg width="88" height="23" viewBox="0 0 88 23" fill="none" xmlns="http://www.w3.org/2000/svg">
<path d="M19.9243 10.516C19.9723 10.684 19.9603 10.852 19.8883 11.02C19.8163 11.188 19.8043 11.368 19.8523 11.56C19.8523 11.656 19.8283 11.752 19.7803 11.848C19.7803 11.896 19.7683 11.944 19.7443 11.992C19.7203 12.016 19.7083 12.04 19.7083 12.064C19.7323 12.448 19.7323 12.712 19.7083 12.856C19.7083 12.976 19.6483 13.228 19.5283 13.612C19.5523 13.708 19.5643 13.828 19.5643 13.972C19.5883 14.092 19.6123 14.224 19.6363 14.368C19.6123 14.536 19.5523 14.752 19.4563 15.016C19.3843 14.968 19.3123 14.932 19.2403 14.908C19.1923 14.884 19.1443 14.86 19.0963 14.836C18.9523 14.788 18.8803 14.848 18.8803 15.016C18.8803 15.184 18.9043 15.34 18.9523 15.484C19.0243 15.604 19.1083 15.724 19.2043 15.844C19.1563 16.036 19.1083 16.24 19.0603 16.456C19.0363 16.672 19.0003 16.9 18.9523 17.14C18.8323 17.356 18.7003 17.584 18.5563 17.824C18.4123 18.04 18.2203 18.208 17.9803 18.328C17.9563 18.448 17.9323 18.556 17.9083 18.652C17.8843 18.724 17.8483 18.82 17.8003 18.94C17.5843 19.108 17.3683 19.288 17.1523 19.48C16.9363 19.648 16.7563 19.828 16.6123 20.02C16.4923 20.116 16.3843 20.152 16.2883 20.128C16.1923 20.104 16.0963 20.104 16.0003 20.128C15.8323 20.248 15.6643 20.368 15.4963 20.488C15.3523 20.608 15.1963 20.728 15.0283 20.848C14.8603 20.944 14.7043 21.052 14.5603 21.172C14.4163 21.292 14.2603 21.412 14.0923 21.532H13.5523C13.4323 21.628 13.3243 21.712 13.2283 21.784C13.1323 21.832 13.0243 21.892 12.9043 21.964C12.8323 21.964 12.7723 21.976 12.7243 22C12.7003 22 12.6643 21.988 12.6163 21.964C12.3763 21.94 12.2083 21.952 12.1123 22C12.0163 22.024 11.8243 22.096 11.5363 22.216C11.3203 22.288 11.1043 22.36 10.8883 22.432C10.6723 22.528 10.4563 22.624 10.2403 22.72C9.9763 22.6 9.7003 22.54 9.4123 22.54C9.1483 22.54 8.8723 22.54 8.5843 22.54C8.4403 22.444 8.2963 22.36 8.1523 22.288C8.0563 22.24 7.9723 22.204 7.9003 22.18C7.8523 22.156 7.7803 22.132 7.6843 22.108C7.6363 22.108 7.5643 22.108 7.4683 22.108C7.3963 22.108 7.3123 22.132 7.2163 22.18C7.1683 22.204 7.1083 22.24 7.0363 22.288C6.9643 22.336 6.9043 22.396 6.8563 22.468C6.4003 22.396 5.9323 22.324 5.4523 22.252C4.9723 22.204 4.4923 22.132 4.0123 22.036C3.8203 21.988 3.6283 21.94 3.4363 21.892C3.2683 21.82 3.0883 21.76 2.8963 21.712C2.7523 21.736 2.6083 21.76 2.4643 21.784C2.3203 21.808 2.1643 21.844 1.9963 21.892C1.6123 21.94 1.3363 21.772 1.1683 21.388C1.1683 21.34 1.1563 21.292 1.1323 21.244C1.1323 21.196 1.1323 21.16 1.1323 21.136C1.1803 20.872 1.2283 20.62 1.2763 20.38C1.3243 20.14 1.3603 19.912 1.3843 19.696C1.3843 19.648 1.4323 19.576 1.5283 19.48V19.336C1.4323 19.264 1.3363 19.192 1.2403 19.12C1.1683 19.048 1.0963 18.976 1.0243 18.904L0.988297 15.664V15.628H1.2403C1.2163 15.58 1.1803 15.544 1.1323 15.52C1.0843 15.472 1.0363 15.436 0.988297 15.412C0.988297 15.412 1.0243 15.304 1.0963 15.088C1.1683 14.872 1.2163 14.716 1.2403 14.62C1.2883 14.476 1.2763 14.356 1.2043 14.26C1.1563 14.164 1.1203 14.068 1.0963 13.972C1.1443 13.876 1.1923 13.792 1.2403 13.72C1.2883 13.624 1.3243 13.528 1.3483 13.432C1.3243 13.312 1.2883 13.204 1.2403 13.108C1.1923 13.012 1.1443 12.916 1.0963 12.82C1.0723 12.7 1.0723 12.58 1.0963 12.46C1.1443 12.316 1.1683 12.196 1.1683 12.1C1.2163 11.98 1.2283 11.86 1.2043 11.74C1.1803 11.62 1.1683 11.476 1.1683 11.308C1.0963 11.044 0.988297 10.756 0.844297 10.444C0.916297 10.3 0.976297 10.156 1.0243 10.012C1.0723 9.868 1.1203 9.724 1.1683 9.58L1.0603 9.076C1.1083 8.884 1.1563 8.692 1.2043 8.5C1.2763 8.284 1.3243 8.092 1.3483 7.924C1.2523 7.564 1.2043 7.216 1.2043 6.88C1.2283 6.52 1.2403 6.16 1.2403 5.8C1.2403 5.608 1.3003 5.392 1.4203 5.152C1.4683 5.104 1.4923 5.056 1.4923 5.008C1.5163 4.936 1.5403 4.888 1.5643 4.864C1.4443 4.624 1.3723 4.444 1.3483 4.324C1.3483 4.18 1.3723 4.036 1.4203 3.892C1.4683 3.724 1.4323 3.58 1.3123 3.46C1.2403 3.196 1.2163 2.956 1.2403 2.74C1.2643 2.5 1.3003 2.26 1.3483 2.02C1.4683 1.9 1.5643 1.78 1.6363 1.66C1.7323 1.516 1.8283 1.372 1.9243 1.228C2.0443 1.204 2.1643 1.18 2.2843 1.156C2.4283 1.108 2.5483 1.096 2.6443 1.12C3.0283 1.192 3.4363 1.132 3.8683 0.939999C3.9883 0.868 4.1083 0.844 4.2283 0.868C4.3723 0.891999 4.5163 0.927999 4.6603 0.975998C5.1163 0.903999 5.5723 0.831999 6.0283 0.759999C6.4843 0.687998 6.9283 0.591998 7.3603 0.471998C7.4803 0.423999 7.6003 0.411999 7.7203 0.435999C7.8403 0.459998 7.9843 0.471998 8.1523 0.471998L8.8003 0.184C8.9203 0.207999 9.0403 0.243999 9.1603 0.291998C9.2803 0.315998 9.4003 0.351998 9.5203 0.399999C9.6643 0.375999 9.8083 0.339999 9.9523 0.291998C10.0963 0.243999 10.2523 0.207999 10.4203 0.184C10.5163 0.231999 10.6123 0.291999 10.7083 0.364C10.8043 0.435999 10.9003 0.495999 10.9963 0.543999C11.2603 0.52 11.5003 0.472 11.7163 0.399999C11.9563 0.327999 12.1963 0.279999 12.4363 0.255999C12.5323 0.351999 12.6043 0.459999 12.6523 0.579999C12.7003 0.675999 12.7723 0.76 12.8683 0.832C12.9643 0.952 13.0963 1.012 13.2643 1.012C13.4563 0.987999 13.5883 0.903998 13.6603 0.759999C13.7083 0.639999 13.7803 0.591999 13.8763 0.615999C13.9963 0.639998 14.1163 0.747998 14.2363 0.939999C14.3803 0.939999 14.5243 0.927999 14.6683 0.903999C14.8123 0.879999 14.9683 0.868 15.1363 0.868C15.2563 0.939999 15.3523 1.012 15.4243 1.084C15.5203 1.132 15.6163 1.204 15.7123 1.3C15.8083 1.396 15.9043 1.492 16.0003 1.588C16.0963 1.66 16.2043 1.732 16.3243 1.804C16.4683 1.876 16.5643 1.984 16.6123 2.128C16.7083 2.272 16.8163 2.416 16.9363 2.56C17.0803 2.68 17.2123 2.8 17.3323 2.92C17.5243 3.136 17.8123 3.304 18.1963 3.424C18.2443 3.448 18.2923 3.472 18.3403 3.496C18.4123 3.52 18.4603 3.544 18.4843 3.568C18.5323 3.76 18.5803 3.952 18.6283 4.144C18.7003 4.312 18.7483 4.492 18.7723 4.684C18.7483 4.9 18.7123 5.08 18.6643 5.224C18.7123 5.44 18.8083 5.62 18.9523 5.764C19.0963 5.884 19.2283 6.016 19.3483 6.16C19.6843 6.688 19.8523 7.3 19.8523 7.996C19.8523 8.236 19.8643 8.476 19.8883 8.716C19.9123 8.932 19.9003 9.148 19.8523 9.364C19.8283 9.556 19.8403 9.748 19.8883 9.94C19.9603 10.132 19.9723 10.324 19.9243 10.516ZM14.5963 9.832C14.5483 9.712 14.4763 9.592 14.3803 9.472C14.3083 9.328 14.2483 9.184 14.2003 9.04C14.1283 8.896 14.0683 8.752 14.0203 8.608C13.9723 8.44 13.9243 8.272 13.8763 8.104C13.4923 8.056 13.1563 7.936 12.8683 7.744C12.6043 7.552 12.3403 7.36 12.0763 7.168H11.5363C11.2963 6.976 11.0683 6.808 10.8523 6.664C10.6363 6.496 10.4083 6.328 10.1683 6.16C9.7603 6.112 9.3523 6.112 8.9443 6.16C8.5603 6.184 8.2003 6.16 7.8643 6.088C7.6483 6.16 7.4563 6.22 7.2883 6.268C7.1443 6.292 7.0003 6.328 6.8563 6.376C6.7123 6.472 6.6163 6.544 6.5683 6.592C6.4963 6.952 6.4723 7.312 6.4963 7.672C6.5203 8.032 6.5443 8.392 6.5683 8.752C6.6643 8.896 6.6763 9.04 6.6043 9.184C6.5563 9.304 6.5443 9.424 6.5683 9.544C6.5923 9.616 6.6043 9.688 6.6043 9.76C6.6283 9.832 6.6523 9.928 6.6763 10.048C6.6283 10.192 6.5923 10.348 6.5683 10.516C6.5683 10.66 6.5563 10.828 6.5323 11.02C6.5323 11.404 6.4963 11.764 6.4243 12.1C6.4963 12.22 6.5563 12.34 6.6043 12.46C6.6523 12.556 6.7003 12.664 6.7483 12.784C6.6763 13 6.5923 13.228 6.4963 13.468C6.4243 13.684 6.3643 13.888 6.3163 14.08C6.3163 14.2 6.3163 14.32 6.3163 14.44C6.3403 14.56 6.3403 14.68 6.3163 14.8C6.2923 15.088 6.2203 15.376 6.1003 15.664L6.2443 15.916C6.3883 16.276 6.6763 16.408 7.1083 16.312C7.3723 16.312 7.5883 16.276 7.7563 16.204C7.9243 16.156 8.0803 16.156 8.2243 16.204C8.3923 16.228 8.5603 16.228 8.7283 16.204C8.9203 16.156 9.1243 16.096 9.3403 16.024C9.5803 15.928 9.7963 15.844 9.9883 15.772C10.1083 15.748 10.2163 15.724 10.3123 15.7C10.4083 15.676 10.5043 15.676 10.6003 15.7C10.8163 15.724 11.0443 15.724 11.2843 15.7C11.5243 15.676 11.7643 15.652 12.0043 15.628C12.0523 15.58 12.1243 15.544 12.2203 15.52C12.3163 15.472 12.4003 15.424 12.4723 15.376C12.8323 15.208 13.1443 14.932 13.4083 14.548C13.5283 14.38 13.6243 14.2 13.6963 14.008C13.7923 13.792 13.8883 13.6 13.9843 13.432C14.1763 13.024 14.3203 12.628 14.4163 12.244C14.5123 11.836 14.5363 11.416 14.4883 10.984C14.4643 10.888 14.4523 10.792 14.4523 10.696C14.4763 10.6 14.5003 10.504 14.5243 10.408C14.5483 10.312 14.5723 10.216 14.5963 10.12C14.6203 10.024 14.6203 9.928 14.5963 9.832ZM38.7641 19.732C38.7401 19.708 38.7161 19.696 38.6921 19.696L38.7281 19.732C38.6321 19.78 38.5601 19.888 38.5121 20.056C38.4881 20.224 38.4281 20.344 38.3321 20.416C38.3081 20.488 38.2241 20.596 38.0801 20.74C37.9361 20.884 37.8281 20.944 37.7561 20.92C37.4201 20.848 37.0241 20.848 36.5681 20.92C36.4961 20.992 36.4241 21.064 36.3521 21.136C36.2801 21.208 36.1841 21.292 36.0641 21.388C36.0401 21.388 36.0161 21.4 35.9921 21.424C35.9681 21.424 35.9321 21.424 35.8841 21.424C35.8121 21.448 35.7041 21.46 35.5601 21.46C34.7921 21.436 34.0361 21.58 33.2921 21.892C33.1241 21.94 32.9441 21.976 32.7521 22C32.5601 22 32.3681 21.964 32.1761 21.892C32.0321 21.82 31.8881 21.784 31.7441 21.784C31.6241 21.76 31.4921 21.76 31.3481 21.784C31.0361 21.784 30.7361 21.736 30.4481 21.64C30.3281 21.664 30.1961 21.688 30.0521 21.712C29.9321 21.736 29.8121 21.772 29.6921 21.82C29.5721 21.868 29.4521 21.928 29.3321 22C29.2121 22.096 29.0801 22.132 28.9361 22.108C28.9121 22.06 28.8761 22.012 28.8281 21.964C28.7801 21.892 28.7321 21.808 28.6841 21.712C28.6361 21.688 28.5761 21.664 28.5041 21.64C28.4321 21.592 28.3721 21.556 28.3241 21.532C28.0121 21.484 27.7241 21.376 27.4601 21.208C27.1001 20.968 26.7521 20.788 26.4161 20.668C26.2481 20.62 26.1041 20.536 25.9841 20.416C25.8881 20.272 25.7801 20.152 25.6601 20.056C25.5641 19.816 25.4801 19.588 25.4081 19.372C25.3361 19.156 25.2881 18.928 25.2641 18.688C25.1921 18.64 25.1321 18.592 25.0841 18.544C25.0361 18.472 24.9881 18.412 24.9401 18.364C24.7961 18.268 24.7241 18.184 24.7241 18.112C24.7001 17.896 24.6281 17.728 24.5081 17.608C24.3881 17.488 24.2801 17.32 24.1841 17.104C24.1841 17.056 24.1721 16.984 24.1481 16.888C24.1481 16.792 24.1361 16.696 24.1121 16.6C24.1121 16.552 24.1121 16.492 24.1121 16.42C24.1121 16.324 24.1001 16.252 24.0761 16.204C23.9801 16.012 23.8841 15.832 23.7881 15.664C23.6921 15.472 23.6081 15.292 23.5361 15.124C23.5361 15.004 23.5601 14.824 23.6081 14.584C23.7281 14.08 23.7161 13.588 23.5721 13.108C23.5001 12.94 23.4521 12.772 23.4281 12.604C23.4041 12.436 23.3681 12.268 23.3201 12.1C23.3441 12.052 23.3681 11.992 23.3921 11.92C23.4401 11.824 23.4881 11.752 23.5361 11.704L23.2841 10.948C23.2361 10.828 23.1641 10.72 23.0681 10.624C22.9961 10.504 22.9241 10.396 22.8521 10.3C22.8281 10.108 22.8641 9.928 22.9601 9.76C23.0801 9.592 23.1521 9.424 23.1761 9.256C23.1761 9.184 23.1641 9.112 23.1401 9.04C23.1401 8.968 23.1401 8.896 23.1401 8.824C23.3321 8.56 23.4521 8.284 23.5001 7.996C23.5721 7.708 23.6201 7.408 23.6441 7.096C23.8121 7 23.9561 6.892 24.0761 6.772C24.1961 6.652 24.2801 6.496 24.3281 6.304C24.3521 6.232 24.3641 6.148 24.3641 6.052C24.3881 5.956 24.4121 5.86 24.4361 5.764C24.5561 5.572 24.6761 5.38 24.7961 5.188C24.9401 4.972 25.0721 4.78 25.1921 4.612C25.2401 4.492 25.2761 4.36 25.3001 4.216C25.3481 4.072 25.4201 3.952 25.5161 3.856C25.6361 3.784 25.7201 3.688 25.7681 3.568C25.8401 3.448 25.9001 3.328 25.9481 3.208C26.1161 3.184 26.2601 3.148 26.3801 3.1C26.5001 3.052 26.6081 3.016 26.7041 2.992C26.8241 2.92 26.8841 2.848 26.8841 2.776C26.9561 2.44 27.1001 2.2 27.3161 2.056C27.5561 1.888 27.8201 1.768 28.1081 1.696C28.2041 1.672 28.2881 1.66 28.3601 1.66C28.4321 1.636 28.5281 1.612 28.6481 1.588C28.6961 1.54 28.7561 1.48 28.8281 1.408C28.9001 1.312 28.9721 1.216 29.0441 1.12C29.1881 1.072 29.3201 1.024 29.4401 0.975998C29.5841 0.927999 29.7041 0.879999 29.8001 0.832H30.0521C30.2441 0.903999 30.4361 0.975999 30.6281 1.048C30.8441 1.096 31.0721 1.156 31.3121 1.228C31.5041 1.204 31.6961 1.168 31.8881 1.12C32.1041 1.048 32.3081 1.036 32.5001 1.084C32.5241 1.084 32.5481 1.096 32.5721 1.12C32.5961 1.12 32.6201 1.108 32.6441 1.084C32.8121 1.084 32.9801 1.06 33.1481 1.012C33.3161 0.963999 33.4841 0.951998 33.6521 0.975998C33.7961 0.975998 33.9401 0.963998 34.0841 0.939999C34.2521 0.915999 34.4081 0.867999 34.5521 0.795998C34.6721 0.771999 34.7801 0.759999 34.8761 0.759999C34.9961 0.735999 35.1161 0.747999 35.2361 0.795998C35.3081 0.867999 35.3801 0.939999 35.4521 1.012C35.5241 1.06 35.6081 1.132 35.7041 1.228C35.8961 1.252 36.1001 1.3 36.3161 1.372C36.5561 1.42 36.7961 1.48 37.0361 1.552C37.1561 1.576 37.2641 1.636 37.3601 1.732C37.4801 1.828 37.6241 1.9 37.7921 1.948C37.9361 1.996 38.0801 2.032 38.2241 2.056C38.3921 2.056 38.5601 2.056 38.7281 2.056C39.1121 2.44 39.5681 2.704 40.0961 2.848C40.1441 2.872 40.1921 2.896 40.2401 2.92C40.2881 2.944 40.3361 2.968 40.3841 2.992C40.5761 3.16 40.7561 3.34 40.9241 3.532C41.1161 3.7 41.2961 3.868 41.4641 4.036C41.6321 4.228 41.7281 4.432 41.7521 4.648C41.9441 4.816 42.0521 4.948 42.0761 5.044C42.1241 5.116 42.1481 5.344 42.1481 5.728C42.2921 5.8 42.4241 5.884 42.5441 5.98C42.6641 6.052 42.7361 6.172 42.7601 6.34C42.8081 6.436 42.8561 6.532 42.9041 6.628C42.9521 6.7 42.9881 6.784 43.0121 6.88C43.0841 6.976 43.1561 7.06 43.2281 7.132C43.3241 7.18 43.4201 7.252 43.5161 7.348C43.5881 7.516 43.6481 7.684 43.6961 7.852C43.7441 7.996 43.7441 8.164 43.6961 8.356C43.6481 8.524 43.6361 8.704 43.6601 8.896C43.6841 9.088 43.6841 9.292 43.6601 9.508C43.6361 9.7 43.6361 9.904 43.6601 10.12C43.6841 10.336 43.7081 10.54 43.7321 10.732C43.7561 10.828 43.7681 10.936 43.7681 11.056C43.7681 11.152 43.7801 11.236 43.8041 11.308C43.9001 11.476 43.9481 11.644 43.9481 11.812C43.9721 11.98 43.9721 12.148 43.9481 12.316C43.9481 12.412 43.9481 12.508 43.9481 12.604C43.9721 12.676 43.9841 12.772 43.9841 12.892C43.8881 13.204 43.8041 13.528 43.7321 13.864C43.6601 14.176 43.5521 14.476 43.4081 14.764C43.2641 15.028 43.1201 15.292 42.9761 15.556C42.8321 15.82 42.6641 16.072 42.4721 16.312V16.924C42.3521 16.996 42.2321 17.08 42.1121 17.176C42.0161 17.248 41.9321 17.308 41.8601 17.356C41.6921 17.644 41.5841 17.908 41.5361 18.148C41.5121 18.364 41.4641 18.568 41.3921 18.76C41.2961 18.856 41.2001 18.952 41.1041 19.048C41.0081 19.144 40.9001 19.24 40.7801 19.336C40.6601 19.432 40.5161 19.516 40.3481 19.588C40.2041 19.636 40.0361 19.624 39.8441 19.552C39.6281 19.504 39.4481 19.516 39.3041 19.588C39.2081 19.612 39.1121 19.636 39.0161 19.66C38.9201 19.684 38.8361 19.708 38.7641 19.732ZM38.1881 11.596C38.1401 11.476 38.1041 11.368 38.0801 11.272C38.0801 11.152 38.0681 11.032 38.0441 10.912C38.0441 10.72 38.0321 10.564 38.0081 10.444C37.9601 10.252 37.8881 10.048 37.7921 9.832C37.7201 9.592 37.6361 9.364 37.5401 9.148C37.5161 9.052 37.4681 8.956 37.3961 8.86C37.3481 8.74 37.3001 8.632 37.2521 8.536C37.0601 8.152 36.7601 7.924 36.3521 7.852C36.2801 7.828 36.1961 7.804 36.1001 7.78C36.0041 7.732 35.9201 7.684 35.8481 7.636C35.7041 7.54 35.5601 7.468 35.4161 7.42C35.2721 7.372 35.1281 7.336 34.9841 7.312C34.7921 7.264 34.5881 7.216 34.3721 7.168C34.1561 7.096 33.9521 7.048 33.7601 7.024C33.5201 6.904 33.2921 6.916 33.0761 7.06C32.4281 7.324 31.8401 7.672 31.3121 8.104C30.7841 8.512 30.3281 9.076 29.9441 9.796C29.8721 9.892 29.8001 10 29.7281 10.12C29.6801 10.24 29.6321 10.36 29.5841 10.48C29.4881 10.6 29.4041 10.732 29.3321 10.876C29.2601 10.996 29.2001 11.116 29.1521 11.236C29.1761 11.428 29.2601 11.584 29.4041 11.704C29.5481 11.824 29.6321 11.98 29.6561 12.172C29.6561 12.268 29.6201 12.364 29.5481 12.46C29.4761 12.532 29.4281 12.616 29.4041 12.712C29.4521 12.808 29.5121 12.916 29.5841 13.036C29.6561 13.156 29.7161 13.276 29.7641 13.396C29.8361 13.516 29.8841 13.648 29.9081 13.792C29.9561 13.912 29.9921 14.044 30.0161 14.188C30.0641 14.308 30.1001 14.428 30.1241 14.548C30.1721 14.668 30.2081 14.788 30.2321 14.908L30.7361 15.304C30.8081 15.352 30.8801 15.424 30.9521 15.52C31.0481 15.592 31.1441 15.652 31.2401 15.7C31.5281 15.772 31.7801 15.844 31.9961 15.916C32.1881 15.964 32.3561 15.988 32.5001 15.988C32.6441 15.988 32.8001 15.988 32.9681 15.988C32.9681 15.988 32.9561 15.988 32.9321 15.988C32.9321 15.988 32.9321 16 32.9321 16.024H33.0041C32.9801 16.024 32.9681 16.012 32.9681 15.988C33.0161 15.94 33.0761 15.916 33.1481 15.916C33.2201 15.892 33.2801 15.88 33.3281 15.88C33.4721 15.88 33.6161 15.892 33.7601 15.916C33.9281 15.916 34.0961 15.904 34.2641 15.88C34.3121 15.832 34.3721 15.832 34.4441 15.88C34.5401 15.904 34.6241 15.928 34.6961 15.952C34.7921 15.952 34.8641 15.928 34.9121 15.88C34.9121 15.784 34.9001 15.7 34.8761 15.628C34.8761 15.556 34.9121 15.496 34.9841 15.448C35.2961 15.28 35.5961 15.148 35.8841 15.052C36.0041 14.956 36.1001 14.872 36.1721 14.8C36.2681 14.728 36.3521 14.644 36.4241 14.548C36.5201 14.5 36.5921 14.44 36.6401 14.368C36.7121 14.296 36.7961 14.248 36.8921 14.224C37.1081 14.152 37.2881 14.056 37.4321 13.936C37.6001 13.792 37.7561 13.648 37.9001 13.504C37.9241 13.456 37.9361 13.42 37.9361 13.396C37.9601 13.348 37.9841 13.3 38.0081 13.252C38.2721 12.7 38.3321 12.148 38.1881 11.596ZM67.3287 2.416C67.4007 2.584 67.4367 2.764 67.4367 2.956C67.4607 3.148 67.4127 3.34 67.2927 3.532C67.2447 3.628 67.2207 3.724 67.2207 3.82C67.2447 3.892 67.2567 3.988 67.2567 4.108C67.2087 4.18 67.1487 4.252 67.0767 4.324C67.0047 4.372 66.9447 4.444 66.8967 4.54C66.8487 4.588 66.8007 4.648 66.7527 4.72C66.7287 4.792 66.6687 4.852 66.5727 4.9C66.4527 4.876 66.3087 4.864 66.1407 4.864C65.9727 4.864 65.8167 4.864 65.6727 4.864C65.3127 4.864 64.9887 4.96 64.7007 5.152C64.6047 5.248 64.5087 5.32 64.4127 5.368C64.3167 5.392 64.2207 5.428 64.1247 5.476C63.9807 5.62 63.9327 5.764 63.9807 5.908V6.592C64.0047 6.808 64.0287 7.024 64.0527 7.24C64.1007 7.432 64.1127 7.648 64.0887 7.888C64.0647 7.936 64.0647 8.008 64.0887 8.104C64.1127 8.176 64.1367 8.236 64.1607 8.284C64.1367 8.38 64.1007 8.464 64.0527 8.536C64.0287 8.584 64.0047 8.656 63.9807 8.752C64.0047 8.848 64.0287 8.944 64.0527 9.04C64.0767 9.112 64.1007 9.196 64.1247 9.292C64.1247 9.412 64.1127 9.496 64.0887 9.544C64.0407 9.688 63.9927 9.832 63.9447 9.976C63.9207 10.12 63.8847 10.264 63.8367 10.408C63.7647 10.576 63.7527 10.732 63.8007 10.876C63.8487 11.02 63.8367 11.164 63.7647 11.308C63.7647 11.812 63.7407 12.304 63.6927 12.784C63.6447 13.264 63.6087 13.744 63.5847 14.224C63.5847 14.848 63.6927 15.484 63.9087 16.132C64.0047 16.348 64.1607 16.456 64.3767 16.456C64.4247 16.432 64.4727 16.396 64.5207 16.348C64.5927 16.3 64.6647 16.264 64.7367 16.24C64.8087 16.24 64.8687 16.264 64.9167 16.312C65.1087 16.528 65.3247 16.672 65.5647 16.744C65.9487 16.84 66.0567 17.032 65.8887 17.32C65.8167 17.488 65.7807 17.668 65.7807 17.86C65.8047 18.052 65.8047 18.244 65.7807 18.436C65.7327 18.964 65.7087 19.504 65.7087 20.056C65.7087 20.584 65.7447 21.124 65.8167 21.676C65.8167 21.94 65.7927 22.108 65.7447 22.18C65.7207 22.276 65.5767 22.42 65.3127 22.612H65.2047C65.0127 22.588 64.8207 22.564 64.6287 22.54C64.4607 22.516 64.2927 22.492 64.1247 22.468C63.6687 22.54 63.2607 22.576 62.9007 22.576C62.7327 22.6 62.5647 22.636 62.3967 22.684C62.2527 22.756 62.0847 22.78 61.8927 22.756C61.7007 22.708 61.5087 22.708 61.3167 22.756C61.1247 22.804 60.9327 22.828 60.7407 22.828C60.6447 22.78 60.5487 22.744 60.4527 22.72C60.3807 22.696 60.2847 22.66 60.1647 22.612C59.5887 22.708 59.0127 22.768 58.4367 22.792C57.8607 22.816 57.2727 22.84 56.6727 22.864C56.5527 22.696 56.4327 22.54 56.3127 22.396C56.1927 22.276 56.0847 22.144 55.9887 22C55.9407 21.832 55.8447 21.688 55.7007 21.568C55.5807 21.448 55.4607 21.34 55.3407 21.244C55.3167 21.004 55.2687 20.776 55.1967 20.56C55.1487 20.368 55.1487 20.176 55.1967 19.984C55.2687 19.864 55.2927 19.744 55.2687 19.624C55.2207 19.408 55.2087 19.192 55.2327 18.976C55.2807 18.736 55.3287 18.508 55.3767 18.292V17.86C55.5687 17.812 55.7607 17.776 55.9527 17.752C56.1447 17.704 56.3367 17.704 56.5287 17.752C56.6247 17.704 56.7087 17.656 56.7807 17.608C56.8527 17.536 56.9367 17.464 57.0327 17.392C57.1527 17.44 57.2727 17.488 57.3927 17.536C57.5127 17.584 57.6447 17.632 57.7887 17.68C58.0287 17.536 58.3047 17.344 58.6167 17.104C58.6647 16.96 58.6887 16.852 58.6887 16.78C58.6887 16.516 58.6887 16.252 58.6887 15.988C58.6887 15.7 58.7007 15.424 58.7247 15.16V15.052C58.6287 14.812 58.5927 14.584 58.6167 14.368C58.6407 14.152 58.6407 13.924 58.6167 13.684V13.216C58.6647 12.664 58.6767 12.124 58.6527 11.596C58.6527 11.044 58.6407 10.492 58.6167 9.94L58.8687 9.472C58.8447 9.352 58.8207 9.232 58.7967 9.112C58.7727 8.992 58.7487 8.872 58.7247 8.752C58.7487 8.632 58.7727 8.524 58.7967 8.428C58.8447 8.332 58.8807 8.224 58.9047 8.104C58.9047 8.008 58.8927 7.936 58.8687 7.888C58.7487 7.6 58.7007 7.336 58.7247 7.096V6.556C58.7247 6.46 58.7007 6.388 58.6527 6.34C58.6047 6.268 58.5807 6.184 58.5807 6.088C58.6047 6.04 58.6167 5.932 58.6167 5.764C58.5927 5.62 58.5687 5.476 58.5447 5.332C58.5207 5.188 58.4847 5.044 58.4367 4.9C58.3167 4.78 58.1847 4.744 58.0407 4.792C57.8967 4.816 57.7647 4.816 57.6447 4.792C57.5247 4.744 57.3927 4.72 57.2487 4.72C57.1047 4.72 56.9487 4.72 56.7807 4.72C56.6127 4.624 56.4207 4.588 56.2047 4.612C56.0127 4.612 55.8207 4.576 55.6287 4.504C55.5327 4.384 55.4847 4.24 55.4847 4.072C55.5087 3.904 55.4847 3.784 55.4127 3.712C55.3647 3.616 55.3647 3.496 55.4127 3.352C55.4607 3.184 55.4607 3.04 55.4127 2.92C55.5087 2.8 55.5207 2.716 55.4487 2.668C55.3767 2.62 55.3767 2.524 55.4487 2.38C55.5207 2.26 55.5567 2.128 55.5567 1.984C55.5567 1.816 55.6047 1.684 55.7007 1.588C55.7487 1.54 55.7607 1.468 55.7367 1.372C55.7367 1.252 55.7487 1.144 55.7727 1.048C55.8207 0.999999 55.9287 0.975998 56.0967 0.975998C56.2647 0.951998 56.3607 0.915999 56.3847 0.868C56.4807 0.748 56.5887 0.663999 56.7087 0.615999C56.8527 0.567999 56.9967 0.507999 57.1407 0.435999C57.1887 0.435999 57.2487 0.435999 57.3207 0.435999C57.3927 0.411999 57.4767 0.399999 57.5727 0.399999C57.7647 0.399999 57.9687 0.399999 58.1847 0.399999C58.4007 0.399999 58.6047 0.387999 58.7967 0.364C58.9887 0.315999 59.1807 0.279999 59.3727 0.255999C59.5647 0.207999 59.7687 0.171999 59.9847 0.147998C60.2007 0.0999987 60.4167 0.111999 60.6327 0.184C60.9447 0.279999 61.3287 0.267998 61.7847 0.147998C61.8807 0.123998 61.9647 0.0999987 62.0367 0.075999C62.1087 0.0519993 62.1687 0.0279996 62.2167 0.00399995C62.3847 0.0279996 62.5287 0.0519993 62.6487 0.075999C62.7927 0.0999987 62.9127 0.111999 63.0087 0.111999C63.0807 0.111999 63.1527 0.0999987 63.2247 0.075999C63.3207 0.0519993 63.3927 0.0399995 63.4407 0.0399995C63.6807 0.0399995 63.8967 0.0519993 64.0887 0.075999C64.3047 0.075999 64.5207 0.0999987 64.7367 0.147998C65.1927 0.219999 65.6007 0.243999 65.9607 0.219999C66.0807 0.196 66.1767 0.196 66.2487 0.219999C66.3447 0.219999 66.4047 0.219999 66.4287 0.219999C66.5967 0.243999 66.7167 0.303999 66.7887 0.399999C66.8847 0.472 66.9567 0.532 67.0047 0.579999C67.3887 0.963998 67.4727 1.36 67.2567 1.768C67.2327 1.792 67.2207 1.876 67.2207 2.02C67.2447 2.068 67.2567 2.128 67.2567 2.2C67.2807 2.248 67.3047 2.32 67.3287 2.416ZM87.1242 1.084C87.0762 1.372 87.0402 1.66 87.0162 1.948C87.0162 2.212 87.0162 2.488 87.0162 2.776C87.0162 3.112 87.0042 3.436 86.9802 3.748C86.9802 4.06 86.9562 4.384 86.9082 4.72C86.8842 4.768 86.8722 4.84 86.8722 4.936C86.8962 5.176 86.9322 5.416 86.9802 5.656C87.0522 5.872 87.0642 6.076 87.0162 6.268C86.9682 6.388 86.9562 6.508 86.9802 6.628C87.0042 6.748 86.9922 6.868 86.9442 6.988C86.9202 7.036 86.8962 7.084 86.8722 7.132C86.8482 7.18 86.8242 7.228 86.8002 7.276C86.6802 7.3 86.5602 7.324 86.4402 7.348C86.3442 7.348 86.2362 7.348 86.1162 7.348C86.0682 7.372 85.9962 7.42 85.9002 7.492C85.8282 7.54 85.7562 7.588 85.6842 7.636C85.5882 7.588 85.5042 7.54 85.4322 7.492C85.3842 7.444 85.3242 7.408 85.2522 7.384C85.2042 7.384 85.1442 7.384 85.0722 7.384C85.0002 7.36 84.9402 7.36 84.8922 7.384C84.7242 7.456 84.4962 7.48 84.2082 7.456C83.9442 7.408 83.7162 7.384 83.5242 7.384C83.2842 7.384 83.0562 7.42 82.8402 7.492C82.6482 7.54 82.4442 7.612 82.2282 7.708C82.0602 7.804 81.8802 7.864 81.6882 7.888C81.5202 7.888 81.3402 7.924 81.1482 7.996C81.0282 8.164 80.9802 8.32 81.0042 8.464C81.0522 8.656 81.0882 8.872 81.1122 9.112C81.1602 9.328 81.1362 9.556 81.0402 9.796C81.0402 9.892 81.0522 9.952 81.0762 9.976C81.1722 10.216 81.2202 10.456 81.2202 10.696C81.2202 10.936 81.1962 11.188 81.1482 11.452C81.1242 11.692 81.1122 11.932 81.1122 12.172C81.1122 12.388 81.0882 12.628 81.0402 12.892C80.9922 13.156 81.0042 13.396 81.0762 13.612C81.1002 13.756 81.1122 13.9 81.1122 14.044C81.1122 14.188 81.1122 14.32 81.1122 14.44C81.0882 14.608 81.0762 14.656 81.0762 14.584C81.0762 14.488 81.0762 14.44 81.0762 14.44V14.548C81.0762 14.572 81.0642 14.596 81.0402 14.62C81.0402 14.62 81.0402 14.632 81.0402 14.656C81.0642 15.064 81.0642 15.376 81.0402 15.592C81.0402 15.784 81.0282 15.964 81.0042 16.132C80.9802 16.276 80.9322 16.504 80.8602 16.816V16.996C80.9562 17.38 81.0042 17.776 81.0042 18.184C81.0042 18.568 80.9922 18.952 80.9682 19.336C80.9682 19.6 80.9682 19.864 80.9682 20.128C80.9922 20.392 81.0522 20.668 81.1482 20.956C81.1242 21.1 81.0882 21.268 81.0402 21.46C80.9922 21.628 80.9322 21.796 80.8602 21.964C80.8362 22.06 80.7882 22.144 80.7162 22.216C80.6682 22.288 80.5842 22.372 80.4642 22.468C79.8882 22.42 79.3482 22.468 78.8442 22.612C78.5802 22.708 78.3042 22.672 78.0162 22.504C77.9682 22.456 77.9442 22.432 77.9442 22.432C77.5842 22.216 77.2362 22.18 76.9002 22.324C76.7562 22.396 76.6122 22.42 76.4682 22.396C76.3242 22.372 76.1922 22.36 76.0722 22.36C75.9042 22.36 75.7602 22.42 75.6402 22.54C75.5202 22.66 75.3642 22.672 75.1722 22.576C75.1482 22.384 75.1602 22.204 75.2082 22.036C75.2802 21.868 75.3282 21.676 75.3522 21.46C75.3282 21.292 75.2802 21.112 75.2082 20.92C75.1602 20.728 75.1122 20.536 75.0642 20.344C75.1122 20.224 75.1482 20.116 75.1722 20.02C75.1962 19.9 75.2082 19.792 75.2082 19.696C75.2322 19.576 75.2322 19.456 75.2082 19.336C75.2082 19.192 75.2082 19.06 75.2082 18.94C75.2322 18.556 75.2322 18.196 75.2082 17.86C75.2082 17.5 75.1842 17.14 75.1362 16.78C75.0882 16.492 75.0522 16.216 75.0282 15.952C75.0282 15.664 75.0162 15.364 74.9922 15.052C75.0642 14.956 75.1242 14.86 75.1722 14.764C75.2442 14.668 75.3282 14.572 75.4242 14.476C75.4482 14.284 75.4602 14.188 75.4602 14.188C75.4602 14.164 75.4602 14.044 75.4602 13.828C75.4362 13.492 75.4362 13.144 75.4602 12.784C75.4842 12.4 75.5322 12.04 75.6042 11.704C75.5802 11.44 75.5442 11.188 75.4962 10.948C75.4482 10.684 75.3642 10.432 75.2442 10.192C75.2922 10.072 75.3402 9.952 75.3882 9.832C75.4602 9.712 75.5082 9.604 75.5322 9.508C75.5082 9.316 75.5082 9.148 75.5322 9.004C75.5802 8.86 75.5682 8.704 75.4962 8.536C75.4722 8.464 75.4122 8.404 75.3162 8.356C75.1482 8.356 74.9802 8.344 74.8122 8.32C74.6442 8.296 74.4762 8.284 74.3082 8.284C74.1402 8.284 73.9722 8.26 73.8042 8.212C73.6602 8.164 73.5042 8.164 73.3362 8.212C73.1922 8.284 73.0482 8.296 72.9042 8.248C72.7842 8.176 72.6522 8.152 72.5082 8.176H71.5722L70.6722 8.032C70.6242 8.032 70.5642 7.996 70.4922 7.924C70.4202 7.852 70.3842 7.78 70.3842 7.708V7.456C70.4322 7.312 70.4682 7.168 70.4922 7.024C70.5402 6.856 70.5402 6.688 70.4922 6.52C70.4682 6.496 70.4562 6.46 70.4562 6.412C70.4802 6.34 70.4922 6.292 70.4922 6.268C70.5882 5.836 70.6362 5.332 70.6362 4.756C70.6362 4.18 70.6122 3.676 70.5642 3.244C70.5642 3.1 70.5642 2.956 70.5642 2.812C70.5642 2.668 70.5882 2.536 70.6362 2.416C70.7562 2.296 70.8762 2.236 70.9962 2.236C71.1162 2.212 71.2362 2.188 71.3562 2.164C71.4762 2.116 71.5842 2.068 71.6802 2.02C71.7762 1.948 71.8842 1.9 72.0042 1.876C72.5562 1.684 73.0722 1.684 73.5522 1.876C73.5522 1.876 73.6362 1.9 73.8042 1.948C74.0202 1.852 74.2482 1.816 74.4882 1.84C74.7282 1.84 74.9802 1.78 75.2442 1.66C75.2922 1.66 75.3642 1.672 75.4602 1.696C75.5802 1.696 75.7002 1.696 75.8202 1.696C76.0362 1.6 76.2522 1.504 76.4682 1.408C76.7082 1.312 76.9362 1.168 77.1522 0.975998C77.5362 0.927999 77.9082 0.915999 78.2682 0.939999C78.6522 0.963998 79.0122 0.915998 79.3482 0.795998C79.5162 0.819999 79.6602 0.868 79.7802 0.939999C79.9242 0.987999 80.0442 1.036 80.1402 1.084C80.3082 1.084 80.4402 1.036 80.5362 0.939999C80.6322 0.819999 80.7762 0.747999 80.9682 0.723999C81.1602 0.675998 81.4362 0.687998 81.7962 0.759999C81.9402 0.783998 82.0842 0.855998 82.2282 0.975998C82.3962 1.072 82.5642 1.108 82.7322 1.084C82.8522 1.012 82.9482 0.939999 83.0202 0.868C83.1162 0.795999 83.2242 0.723999 83.3442 0.651998C83.4882 0.651998 83.6442 0.687998 83.8122 0.759999C83.9802 0.808 84.1362 0.819999 84.2802 0.795998C84.4482 0.771999 84.6042 0.747999 84.7482 0.723999C84.9162 0.675998 85.1202 0.651998 85.3602 0.651998C85.4562 0.675999 85.5522 0.711999 85.6482 0.759999C85.7442 0.783998 85.8402 0.819999 85.9362 0.868C86.0802 0.819999 86.2242 0.783998 86.3682 0.759999C86.5362 0.735999 86.7042 0.711999 86.8722 0.688C86.9202 0.759999 86.9682 0.831999 87.0162 0.903999C87.0642 0.976 87.1002 1.036 87.1242 1.084Z" fill="white"/>
</svg>
